<?xml version="1.0" encoding="utf-8"?>
<!-- Generator: Adobe Illustrator 22.0.1, SVG Export Plug-In . SVG Version: 6.00 Build 0)  -->
<svg version="1.1" id="Layer_1" xmlns="http://www.w3.org/2000/svg" xmlns:xlink="http://www.w3.org/1999/xlink" x="0px" y="0px"
	 viewBox="0 0 48 48" style="enable-background:new 0 0 48 48;" xml:space="preserve">
<style type="text/css">
	.st0{fill:#FFFFFF;}
</style>
<path class="st0" d="M45.4,0H2.6C1.2,0,0,1.2,0,2.6v42.7C0,46.8,1.2,48,2.6,48h23V29.4h-6.2v-7.3h6.2v-5.3c0-6.2,3.8-9.6,9.3-9.6
	c2.6,0,4.9,0.2,5.6,0.3V14h-3.8c-3,0-3.6,1.4-3.6,3.5v4.6h7.2l-0.9,7.3h-6.3V48h12.2c1.5,0,2.6-1.2,2.6-2.6c0,0,0,0,0,0V2.6
	C48,1.2,46.8,0,45.4,0z"/>
</svg>
