<?xml version="1.0" encoding="utf-8"?>
<!-- Generator: Adobe Illustrator 22.0.1, SVG Export Plug-In . SVG Version: 6.00 Build 0)  -->
<svg version="1.1" id="Layer_1" xmlns="http://www.w3.org/2000/svg" xmlns:xlink="http://www.w3.org/1999/xlink" x="0px" y="0px"
	 viewBox="0 0 48 48" style="enable-background:new 0 0 48 48;" xml:space="preserve">
<style type="text/css">
	.st0{fill:#FFFFFF;}
</style>
<g>
	<g>
		<path class="st0" d="M33,0H15C6.7,0,0,6.7,0,15v18c0,8.3,6.7,15,15,15h18c8.3,0,15-6.7,15-15V15C48,6.7,41.3,0,33,0z M43.5,33
			c0,5.8-4.7,10.5-10.5,10.5H15C9.2,43.5,4.5,38.8,4.5,33V15C4.5,9.2,9.2,4.5,15,4.5h18c5.8,0,10.5,4.7,10.5,10.5V33z"/>
	</g>
</g>
<g>
	<g>
		<path class="st0" d="M24,12c-6.6,0-12,5.4-12,12s5.4,12,12,12s12-5.4,12-12S30.6,12,24,12z M24,31.5c-4.1,0-7.5-3.4-7.5-7.5
			c0-4.1,3.4-7.5,7.5-7.5s7.5,3.4,7.5,7.5C31.5,28.1,28.1,31.5,24,31.5z"/>
	</g>
</g>
<g>
	<g>
		<circle class="st0" cx="36.9" cy="11.1" r="1.6"/>
	</g>
</g>
</svg>
