<?xml version="1.0" encoding="utf-8"?>
<!-- Generator: Adobe Illustrator 22.0.1, SVG Export Plug-In . SVG Version: 6.00 Build 0)  -->
<svg version="1.1" id="Layer_1" xmlns="http://www.w3.org/2000/svg" xmlns:xlink="http://www.w3.org/1999/xlink" x="0px" y="0px"
	 viewBox="0 0 400 260" style="enable-background:new 0 0 400 260;" xml:space="preserve">
<style type="text/css">
	.st0{fill:#FFFFFF;}
	.st1{fill:none;stroke:#FFFFFF;stroke-width:2;stroke-miterlimit:10;}
</style>
<g>
	<g>
		<path class="st0" d="M9,210c3,3.9,6,7.8,9,11.7s6,7.8,9,11.7c3-3.9,6-7.8,9-11.7c3-3.9,6-7.8,9-11.7v35.9h-4.1v-23.1
			c0-0.3,0.1-0.5,0.1-0.8c0-0.3,0-0.5,0.1-0.8c-2.2,3.2-4.4,6.3-6.9,9.3c-2.4,3-4.8,6.1-7.2,9.1c-2.2-2.9-4.4-5.7-6.6-8.6
			c-2.2-2.8-4.4-5.7-6.6-8.6l-0.9-1.3c0,0.3,0.1,0.5,0.1,0.8c0,0.3,0,0.5,0.1,0.8v23.1H9V210z"/>
		<path class="st0" d="M53.4,245.9v-34.3h21.1v3.9H57.5v11.2h15.2v3.9H57.5V242h17.8v3.9H53.4z"/>
		<path class="st0" d="M82.4,245.9v-34.3h8.1c1.1,0,2.3,0.2,3.7,0.5c1.4,0.3,2.6,0.9,3.8,1.6c1.2,0.8,2.2,1.7,2.9,2.9
			c0.8,1.2,1.2,2.6,1.2,4.3c0,2.5-0.6,4.5-1.8,6.2c-1.2,1.7-3,2.7-5.4,3.3l7.4,15.6h-4.4l-7.2-15.3h-0.8h-3.3v15.3H82.4z
			 M86.5,226.7h4.3c1.4,0,2.6-0.2,3.6-0.6c0.9-0.4,1.7-0.8,2.2-1.4c0.6-0.6,0.9-1.2,1.2-1.9c0.2-0.7,0.3-1.3,0.3-2
			c0-0.7-0.2-1.4-0.6-2.1s-0.9-1.3-1.5-1.8c-0.6-0.5-1.4-0.9-2.3-1.2c-0.9-0.3-1.9-0.4-2.9-0.4h-4.3V226.7z"/>
		<path class="st0" d="M138.4,245.9h-4.1c-0.9-2.3-1.9-4.5-2.9-6.8c-1-2.3-1.9-4.5-2.9-6.8h-10.8c-0.9,2.3-1.9,4.5-2.9,6.8
			c-1,2.3-1.9,4.5-2.9,6.8H108c2.6-6,5.1-12,7.6-18c2.5-6,5.1-11.9,7.6-18c2.5,6,5.1,12,7.6,18C133.3,233.9,135.9,239.9,138.4,245.9
			z M123.6,220.7l-0.4-1.6c-0.5,1.6-1,3.2-1.7,4.8c-0.7,1.5-1.4,3.1-2,4.7h7.5c-0.6-1.3-1.1-2.6-1.6-3.9
			C124.7,223.3,124.2,222,123.6,220.7z"/>
		<path class="st0" d="M142.1,253v-3.9c2.3-0.1,4.1-0.9,5.6-2.2c1.5-1.3,2.2-3.2,2.2-5.6v-29.8h4.1v29.9c0,1.8-0.3,3.5-0.9,4.9
			c-0.6,1.4-1.4,2.6-2.5,3.6c-1,1-2.3,1.7-3.8,2.2C145.4,252.7,143.8,253,142.1,253z"/>
		<path class="st0" d="M176.6,245.9v-34.3h4.1v15.1h18.5v-15.1h4.1v34.3h-4.1v-15.4h-18.5v15.4H176.6z"/>
		<path class="st0" d="M210.2,228.8c0-2.4,0.5-4.7,1.4-6.8s2.2-4,3.8-5.6c1.6-1.6,3.4-2.9,5.6-3.8c2.1-0.9,4.4-1.4,6.8-1.4
			c2.4,0,4.7,0.5,6.8,1.4c2.1,0.9,4,2.2,5.6,3.8c1.6,1.6,2.9,3.5,3.8,5.6c0.9,2.1,1.4,4.4,1.4,6.8c0,2.4-0.5,4.7-1.4,6.8
			c-0.9,2.1-2.2,4-3.8,5.6c-1.6,1.6-3.5,2.8-5.6,3.8s-4.4,1.4-6.8,1.4c-2.4,0-4.7-0.5-6.8-1.4c-2.1-0.9-4-2.2-5.6-3.8
			c-1.6-1.6-2.8-3.4-3.8-5.6C210.6,233.5,210.2,231.2,210.2,228.8z M214.3,228.8c0,1.9,0.4,3.7,1.1,5.3c0.7,1.7,1.7,3.1,2.9,4.3
			c1.2,1.2,2.7,2.2,4.3,2.9c1.6,0.7,3.4,1.1,5.2,1.1s3.6-0.4,5.2-1.1c1.6-0.7,3.1-1.7,4.3-2.9c1.2-1.2,2.2-2.7,2.9-4.3
			c0.7-1.7,1.1-3.4,1.1-5.3c0-1.9-0.4-3.7-1.1-5.3c-0.7-1.7-1.7-3.1-2.9-4.3c-1.2-1.2-2.7-2.2-4.3-2.9c-1.6-0.7-3.4-1.1-5.2-1.1
			s-3.6,0.4-5.2,1.1c-1.6,0.7-3.1,1.7-4.3,2.9c-1.2,1.2-2.2,2.7-2.9,4.3C214.6,225.1,214.3,226.9,214.3,228.8z"/>
		<path class="st0" d="M264.4,246.3c-1.8,0-3.4-0.2-4.9-0.7c-1.5-0.5-2.8-1.2-3.9-2.2c-1.1-1-2-2.2-2.6-3.6c-0.6-1.4-0.9-3.1-0.9-5
			v-23.3h4.1v23.1c0,1.2,0.2,2.3,0.6,3.3c0.4,1,1,1.8,1.7,2.4c0.7,0.7,1.6,1.2,2.6,1.5c1,0.3,2.1,0.5,3.3,0.5c1.2,0,2.3-0.2,3.3-0.5
			c1-0.3,1.9-0.8,2.6-1.5c0.7-0.7,1.3-1.5,1.7-2.4c0.4-1,0.6-2.1,0.6-3.3v-23.1h4.1v23.3c0,1.9-0.3,3.5-1,5
			c-0.6,1.4-1.5,2.6-2.6,3.6c-1.1,1-2.4,1.7-3.9,2.2C267.8,246.1,266.2,246.3,264.4,246.3z"/>
		<path class="st0" d="M302.4,215c-0.4,0.5-0.8,1-1.2,1.5c-0.4,0.5-0.8,1-1.2,1.5c-0.3-0.3-0.6-0.5-1-0.9c-0.4-0.3-0.9-0.6-1.4-0.9
			c-0.5-0.3-1.1-0.5-1.8-0.7c-0.7-0.2-1.4-0.3-2.1-0.3c-1.9,0-3.3,0.5-4.2,1.6c-0.9,1.1-1.4,2.4-1.4,3.8c0,0.8,0.2,1.5,0.5,2.1
			c0.3,0.6,0.7,1,1.2,1.4c0.5,0.4,1.1,0.7,1.7,1c0.6,0.3,1.3,0.5,2,0.7c1.1,0.4,2.2,0.9,3.5,1.4c1.2,0.5,2.4,1.2,3.5,2.1
			c1.1,0.8,1.9,1.9,2.6,3.1c0.7,1.2,1.1,2.7,1.1,4.4c0,1.5-0.3,2.8-0.8,4c-0.5,1.2-1.3,2.2-2.2,3c-0.9,0.8-2,1.5-3.3,1.9
			s-2.6,0.7-3.9,0.7c-1.2,0-2.5-0.2-3.6-0.5c-1.2-0.3-2.3-0.8-3.2-1.3c-1-0.5-1.9-1.1-2.6-1.8c-0.8-0.7-1.4-1.3-1.8-2l2.5-2.6
			c0.4,0.5,0.9,0.9,1.5,1.4c0.6,0.5,1.2,1,1.9,1.4c0.7,0.4,1.4,0.8,2.3,1c0.8,0.3,1.7,0.4,2.6,0.4c0.8,0,1.7-0.1,2.5-0.4
			s1.5-0.6,2.1-1.1c0.6-0.5,1.1-1.1,1.4-1.8c0.4-0.7,0.5-1.6,0.5-2.5c0-1.3-0.3-2.4-1-3.2c-0.6-0.8-1.4-1.5-2.4-2
			c-0.9-0.5-1.9-1-2.9-1.3c-1-0.3-1.9-0.6-2.6-0.9c-0.6-0.2-1.3-0.5-2.1-0.9s-1.6-0.9-2.3-1.6c-0.7-0.7-1.4-1.5-1.9-2.5
			c-0.5-1-0.8-2.2-0.8-3.7c0-1.1,0.1-2.2,0.4-3.2c0.3-1.1,0.9-2.1,1.6-2.9c0.8-0.9,1.7-1.6,3-2.2c1.2-0.6,2.8-0.8,4.6-0.8
			c1.3,0,2.7,0.2,4.1,0.7S300.6,213.5,302.4,215z"/>
		<path class="st0" d="M312.8,211.6h4.1v34.3h-4.1V211.6z"/>
		<path class="st0" d="M356.5,211.6v35.9c-4.2-4.5-8.4-8.9-12.6-13.3c-4.2-4.4-8.3-8.9-12.6-13.3c-0.2-0.2-0.3-0.4-0.5-0.6
			c-0.1-0.2-0.3-0.4-0.5-0.6c0,0.3,0.1,0.5,0.1,0.8c0,0.3,0,0.5,0.1,0.8v24.8h-4.1V210c4.2,4.6,8.4,9.1,12.6,13.6
			c4.2,4.5,8.3,9,12.6,13.6c0.2,0.2,0.3,0.4,0.5,0.6c0.1,0.2,0.3,0.4,0.5,0.6c0-0.3-0.1-0.5-0.1-0.8c0-0.3,0-0.5-0.1-0.8v-25.4
			H356.5z"/>
		<path class="st0" d="M381.8,235.1v-3.9h6.8c0.9,0,1.6,0.2,1.9,0.7c0.3,0.5,0.5,1.2,0.5,2.2v9.7c-1.3,0.8-2.7,1.3-4.2,1.8
			s-3.1,0.7-4.7,0.7c-2.4,0-4.7-0.5-6.8-1.4c-2.1-0.9-4-2.2-5.6-3.8c-1.6-1.6-2.8-3.4-3.8-5.6c-0.9-2.1-1.4-4.4-1.4-6.8
			c0-2.4,0.5-4.7,1.4-6.8s2.2-4,3.8-5.6c1.6-1.6,3.4-2.8,5.6-3.8c2.1-0.9,4.4-1.4,6.8-1.4c1.7,0,3.2,0.2,4.7,0.6
			c1.5,0.4,2.9,1,4.2,1.8c-0.4,0.6-0.7,1.1-1.1,1.6c-0.4,0.5-0.8,1.1-1.1,1.6c-1-0.6-2.1-1-3.2-1.4c-1.1-0.3-2.3-0.5-3.5-0.5
			c-1.9,0-3.6,0.4-5.2,1.1c-1.6,0.7-3,1.7-4.3,3c-1.2,1.3-2.2,2.7-2.9,4.4s-1.1,3.4-1.1,5.3c0,1.9,0.4,3.6,1.1,5.3
			c0.7,1.7,1.7,3.1,2.9,4.3c1.2,1.2,2.6,2.2,4.3,2.9c1.6,0.7,3.4,1.1,5.2,1.1c1.7,0,3.3-0.3,4.9-0.9v-5c0-0.6-0.1-0.9-0.2-1.2
			c-0.1-0.2-0.4-0.3-1-0.3H381.8z"/>
	</g>
	<polyline class="st1" points="312.9,202.5 312.9,110.6 387,110.6 387,202.5 	"/>
	<polyline class="st1" points="253,202.5 253,61.3 349.9,61.3 349.9,110.6 	"/>
	<polyline class="st1" points="200.5,202.5 200.5,11 295.1,11 295.1,61.3 	"/>
	<polyline class="st1" points="176.9,202.5 175.3,11 96.5,11 96.5,61.3 	"/>
	<polyline class="st1" points="151.7,202.5 151.7,61.3 44.5,61.3 44.5,110.6 	"/>
	<polyline class="st1" points="83.9,202.5 83.9,110.6 9.3,110.6 9.3,202.5 	"/>
</g>
</svg>
