<?xml version="1.0" encoding="utf-8"?>
<!-- Generator: Adobe Illustrator 22.0.1, SVG Export Plug-In . SVG Version: 6.00 Build 0)  -->
<svg version="1.1" xmlns="http://www.w3.org/2000/svg" xmlns:xlink="http://www.w3.org/1999/xlink" x="0px" y="0px"
	 viewBox="0 0 1134 652" style="enable-background:new 0 0 1134 652;" xml:space="preserve">
<style type="text/css">
	.st0{fill:#D2B885;}
</style>
<g id="bkg">
</g>
<g id="design">
	<path class="st0" d="M494.4,163.6V87h-3.7v76.6H494.4z M502,76.1l-79-45.6l-1.8,3.2l79,45.6L502,76.1z M432,0.8h-7.4l-11.3,6.5
		l1.8,3.2L432,0.8z M489.3,83.4L423,45.1l-1.8,3.2l66.3,38.3L489.3,83.4z M494.4,0.8h-3.7v0.2h3.7V0.8z M494.4,326.2v-76.6h-3.7
		v76.6H494.4z M481.7,156.2V94.4H478v61.8H481.7z M481.7,318.8V257H478v61.8H481.7z M489.3,246L423,207.7l-1.8,3.2l66.3,38.3
		L489.3,246z M507.1,0.8h-3.7v7.3h3.7V0.8z M502,238.7l-79-45.6l-1.8,3.2l79,45.6L502,238.7z M532.4,0.8h-3.7v7.3h3.7V0.8z
		 M608.4,28.4L567,52.3L529.4,74l1.8,3.2L567,56.5l43.3-25L608.4,28.4z M517,51.9l1.8,3.2L567,27.3l30.6-17.6l-1.8-3.2L567,23
		L517,51.9z M518.8,40.5L567,12.6l17.8-10.3l-0.9-1.6h-3.7L567,8.4l-50,28.9L518.8,40.5z M518.8,25.8l43.4-25.1h-7.4L517,22.6
		L518.8,25.8z M608.4,43L567,66.9l-25,14.4l1.8,3.2L567,71.2l43.3-25L608.4,43z M610.3,60.8l-1.8-3.2L567,81.5l-12.2,7l1.8,3.2
		l10.4-6L610.3,60.8z M519.7,235H516v105.6h3.7V235z M519.7,397.6H516v105.6h3.7V397.6z M519.7,72.4H516V178h3.7V72.4z M502,401.3
		l-79-45.6l-1.8,3.2l79,45.6L502,401.3z M519.7,0.8H516v14.6h3.7V0.8z M545.1,0.8h-3.7v0.2h3.7V0.8z M489.3,408.6L423,370.4
		l-1.8,3.2l66.3,38.3L489.3,408.6z M377.3,299l78.8-45.5l-1.8-3.2l-78.8,45.5L377.3,299z M412.6,175.7v61.8h3.7v-61.8H412.6z
		 M494.4,488.8v-76.6h-3.7v76.6H494.4z M399.9,168.3v76.6h3.7v-76.6H399.9z M377.3,269.8l53.3-30.7l-1.8-3.2l-53.3,30.7L377.3,269.8
		z M377.3,313.7l91.4-52.8l-1.8-3.2l-91.4,52.8L377.3,313.7z M399.9,330.9v76.6h3.7v-76.6H399.9z M412.6,338.3v61.8h3.7v-61.8H412.6
		z M377.3,432.4l53.3-30.7l-1.8-3.2l-53.3,30.7L377.3,432.4z M390.9,161.2h-3.7V252h3.7V161.2z M390.9,323.8h-3.7v90.8h3.7V323.8z
		 M377.3,284.4l66-38.1l-1.8-3.2l-66,38.1L377.3,284.4z M375.5,635.7l1.8,3.2l91.4-52.8l-1.8-3.2L375.5,635.7z M389.8,646.3l79-45.6
		l-1.8-3.2l-79,45.6L389.8,646.3z M375.5,621.1l1.8,3.2l78.8-45.5l-1.8-3.2L375.5,621.1z M481.7,481.4v-61.8H478v61.8H481.7z
		 M618,171.9l-14.8-8.6L567,142.5l-2.5-1.4l-1.8,3.2l4.3,2.5l28.8,16.6l20.4,11.8L618,171.9z M377.3,136.4l78.8-45.5l-1.8-3.2
		l-78.8,45.5L377.3,136.4z M377.3,151l91.4-52.8l-1.8-3.2l-91.4,52.8L377.3,151z M428.7,73.2l-53.3,30.7l1.8,3.2l53.3-30.7
		L428.7,73.2z M377.3,121.8l66-38.1l-1.8-3.2l-66,38.1L377.3,121.8z M375.5,591.8l1.8,3.2l53.3-30.7l-1.8-3.2L375.5,591.8z
		 M375.5,606.4l1.8,3.2l66-38.1l-1.8-3.2L375.5,606.4z M532.4,405.1h-3.7v90.8h3.7V405.1z M619.5,562.7h3.7V501h-3.7V562.7z
		 M608.4,516.2L567,540.1l-37.6,21.7l1.8,3.2l35.7-20.6l43.3-25L608.4,516.2z M643.5,482.6L567,438.5l-2.5-1.4l-1.8,3.2l4.3,2.5
		l74.7,43.1L643.5,482.6z M635.9,570.1v-76.6h-3.7v76.6H635.9z M630.8,489.9l-2.2-1.3L567,453.1l-2.5-1.4l-1.8,3.2l4.3,2.5
		l54.2,31.3l7.8,4.5L630.8,489.9z M554.8,576.4l1.8,3.2l10.4-6l43.3-25l-1.8-3.2L567,569.4L554.8,576.4z M541.4,87v76.6h3.7V87
		H541.4z M557.7,94.4h-3.7v61.8h3.7V94.4z M532.4,79.9h-3.7v90.8h3.7V79.9z M518.8,188.5l43.4-25.1l4.8-2.7l5.1-2.9l-1.8-3.2
		l-3.2,1.9l-12.1,7L517,185.3L518.8,188.5z M610.2,17l-1.8-3.2L567,37.6l-50,28.9l1.8,3.2L567,41.9L610.2,17z M630.8,2.1l-2.2-1.3
		h-7.4l7.8,4.5L630.8,2.1z M643.5,157.4L567,113.2l-2.5-1.4l-1.8,3.2l4.3,2.5l74.7,43.1L643.5,157.4z M618,9.3l-14.8-8.6h-7.4
		l20.4,11.8L618,9.3z M635.9,244.9v-76.6h-3.7v76.6H635.9z M518.8,203.1l48.2-27.8l17.8-10.3l-0.9-1.6l-0.9-1.6l-2.8,1.6L567,171
		l-50,28.9L518.8,203.1z M623.2,13.1h-3.7v61.8h3.7V13.1z M619.5,237.5h3.7v-61.8h-3.7V237.5z M635.9,407.5v-76.6h-3.7v76.6H635.9z
		 M630.8,327.3l-2.2-1.3L567,290.5l-2.5-1.4l-1.8,3.2l4.3,2.5l54.2,31.3l7.8,4.5L630.8,327.3z M619.5,400.1h3.7v-61.8h-3.7V400.1z
		 M630.8,164.7l-2.2-1.3L567,127.8l-2.5-1.4l-1.8,3.2l4.3,2.5l54.2,31.3l7.8,4.5L630.8,164.7z M643.5,320L567,275.8l-2.5-1.4
		l-1.8,3.2l4.3,2.5l74.7,43.1L643.5,320z M610.3,223.4l-1.8-3.2L567,244.2l-12.2,7l1.8,3.2l10.4-6L610.3,223.4z M557.7,419.6h-3.7
		v61.8h3.7V419.6z M518.8,557.6l48.2-27.8l43.2-24.9l-1.8-3.2L567,525.5l-50,28.9L518.8,557.6z M610.3,386.1l-1.8-3.2L567,406.8
		l-12.2,7l1.8,3.2l10.4-6L610.3,386.1z M518.8,543l48.2-27.8l30.6-17.6l-1.8-3.2L567,510.9l-50,28.9L518.8,543z M518.8,528.3
		l48.2-27.8l17.8-10.3l-0.9-1.6L583,487l-2.8,1.6l-13.2,7.6l-50,28.9L518.8,528.3z M518.8,217.7l48.2-27.8l30.6-17.6l-1.8-3.2
		L567,185.6l-50,28.9L518.8,217.7z M608.4,191L567,214.9l-37.6,21.7l1.8,3.2l35.7-20.6l43.3-25L608.4,191z M608.4,368.2L567,392.1
		l-25,14.4l1.8,3.2l23.2-13.4l43.3-25L608.4,368.2z M608.4,205.6L567,229.5L542,244l1.8,3.2l23.2-13.4l43.3-25L608.4,205.6z
		 M608.4,353.6L567,377.5l-37.6,21.7l1.8,3.2l35.7-20.6l43.3-25L608.4,353.6z M618,334.6l-14.8-8.6L567,305.1l-2.5-1.4l-1.8,3.2
		l4.3,2.5l28.8,16.6l20.4,11.8L618,334.6z M618,497.2l-14.8-8.6L567,467.7l-2.5-1.4l-1.8,3.2l4.3,2.5l28.8,16.6l20.4,11.8L618,497.2
		z M557.7,257h-3.7v61.8h3.7V257z M541.4,249.6v76.6h3.7v-76.6H541.4z M518.8,351.1l43.4-25.1l4.8-2.7l5.1-2.9l-1.8-3.2L567,319
		l-12.1,7L517,347.9L518.8,351.1z M532.4,242.5h-3.7v90.8h3.7V242.5z M518.8,232.4l48.2-27.8l43.2-24.9l-1.8-3.2L567,200.3l-50,28.9
		L518.8,232.4z M518.8,365.7l48.2-27.8l17.8-10.3l-0.9-1.6l-0.9-1.6l-2.8,1.6l-13.2,7.6l-50,28.9L518.8,365.7z M518.8,513.7
		l43.4-25.1l4.8-2.7l5.1-2.9l-1.8-3.2l-3.2,1.9l-12.1,7L517,510.5L518.8,513.7z M377.3,447l66-38.1l-1.8-3.2l-66,38.1L377.3,447z
		 M541.4,412.2v76.6h3.7v-76.6H541.4z M518.8,395l48.2-27.8l43.2-24.9l-1.8-3.2L567,362.9l-50,28.9L518.8,395z M518.8,380.3
		l48.2-27.8l30.6-17.6l-1.8-3.2L567,348.2l-50,28.9L518.8,380.3z M235.8,557.6l48.2-27.8l43.2-24.9l-1.8-3.2L284,525.5l-50,28.9
		L235.8,557.6z M258.4,87v76.6h3.7V87H258.4z M235.8,528.3l48.2-27.8l17.8-10.3l-0.9-1.6L300,487l-2.8,1.6l-13.2,7.6l-50,28.9
		L235.8,528.3z M235.8,543l48.2-27.8l30.6-17.6l-1.8-3.2L284,510.9l-50,28.9L235.8,543z M635.9,5.7h-3.7v76.6h3.7V5.7z M235.8,513.7
		l43.4-25.1l4.8-2.7l5.1-2.9l-1.8-3.2l-3.2,1.9l-12.1,7L234,510.5L235.8,513.7z M258.4,412.2v76.6h3.7v-76.6H258.4z M325.4,368.2
		L284,392.1l-25,14.4l1.8,3.2l23.2-13.4l43.3-25L325.4,368.2z M327.3,223.4l-1.8-3.2L284,244.2l-12.2,7l1.8,3.2l10.4-6L327.3,223.4z
		 M335,334.6l-14.8-8.6L284,305.1l-2.5-1.4l-1.8,3.2l4.3,2.5l28.8,16.6l20.4,11.8L335,334.6z M335,497.2l-14.8-8.6L284,467.7
		l-2.5-1.4l-1.8,3.2l4.3,2.5l28.8,16.6l20.4,11.8L335,497.2z M249.4,405.1h-3.7v90.8h3.7V405.1z M327.3,386.1l-1.8-3.2L284,406.8
		l-12.2,7l1.8,3.2l10.4-6L327.3,386.1z M325.4,353.6L284,377.5l-37.6,21.7l1.8,3.2l35.7-20.6l43.3-25L325.4,353.6z M235.8,217.7
		l48.2-27.8l30.6-17.6l-1.8-3.2L284,185.6l-50,28.9L235.8,217.7z M235.8,232.4l48.2-27.8l43.2-24.9l-1.8-3.2L284,200.3l-50,28.9
		L235.8,232.4z M235.8,203.1l48.2-27.8l17.8-10.3l-0.9-1.6l-0.9-1.6l-2.8,1.6L284,171l-50,28.9L235.8,203.1z M249.4,242.5h-3.7v90.8
		h3.7V242.5z M274.7,94.4H271v61.8h3.7V94.4z M235.8,380.3l48.2-27.8l30.6-17.6l-1.8-3.2L284,348.2l-50,28.9L235.8,380.3z
		 M235.8,365.7l48.2-27.8l17.8-10.3l-0.9-1.6l-0.9-1.6l-2.8,1.6l-13.2,7.6l-50,28.9L235.8,365.7z M235.8,351.1l43.4-25.1l4.8-2.7
		l5.1-2.9l-1.8-3.2L284,319l-12.1,7L234,347.9L235.8,351.1z M235.8,395l48.2-27.8l43.2-24.9l-1.8-3.2L284,362.9l-50,28.9L235.8,395z
		 M258.4,249.6v76.6h3.7v-76.6H258.4z M274.7,257H271v61.8h3.7V257z M274.7,419.6H271v61.8h3.7V419.6z M149,0.8h-7.4l-11.3,6.5
		l1.8,3.2L149,0.8z M224.1,0.8h-3.7v7.3h3.7V0.8z M211.4,0.8h-3.7v0.2h3.7V0.8z M236.7,235H233v105.6h3.7V235z M236.7,397.6H233
		v105.6h3.7V397.6z M198.7,156.2V94.4H195v61.8H198.7z M236.7,72.4H233V178h3.7V72.4z M219,76.1l-79-45.6l-1.8,3.2l79,45.6L219,76.1
		z M325.4,205.6L284,229.5L259,244l1.8,3.2l23.2-13.4l43.3-25L325.4,205.6z M211.4,163.6V87h-3.7v76.6H211.4z M206.3,83.4L140,45.1
		l-1.8,3.2l66.3,38.3L206.3,83.4z M219,238.7l-79-45.6l-1.8,3.2l79,45.6L219,238.7z M325.4,43L284,66.9l-25,14.4l1.8,3.2L284,71.2
		l43.3-25L325.4,43z M325.4,28.4L284,52.3L246.4,74l1.8,3.2L284,56.5l43.3-25L325.4,28.4z M327.3,60.8l-1.8-3.2L284,81.5l-12.2,7
		l1.8,3.2l10.4-6L327.3,60.8z M335,171.9l-14.8-8.6L284,142.5l-2.5-1.4l-1.8,3.2l4.3,2.5l28.8,16.6l20.4,11.8L335,171.9z M325.4,191
		L284,214.9l-37.6,21.7l1.8,3.2l35.7-20.6l43.3-25L325.4,191z M235.8,40.5L284,12.6l17.8-10.3l-0.9-1.6h-3.7L284,8.4l-50,28.9
		L235.8,40.5z M234,51.9l1.8,3.2L284,27.3l30.6-17.6l-1.8-3.2L284,23L234,51.9z M262.1,0.8h-3.7v0.2h3.7V0.8z M211.4,326.2v-76.6
		h-3.7v76.6H211.4z M236.7,0.8H233v14.6h3.7V0.8z M235.8,25.8l43.4-25.1h-7.4L234,22.6L235.8,25.8z M352.9,570.1v-76.6h-3.7v76.6
		H352.9z M466.9,109.7l-79,45.6l1.8,3.2l79-45.6L466.9,109.7z M476.5,90.6L423,59.7l-1.8,3.2l53.5,30.9L476.5,90.6z M476.5,253.2
		L423,222.4l-1.8,3.2l53.5,30.9L476.5,253.2z M466.9,124.3l-66.4,38.3l0.4,0.7l1.4,2.5l4.3-2.5l62.1-35.9L466.9,124.3z M468.8,142.1
		l-1.8-3.2l-42.3,24.4l-11.3,6.5l1.8,3.2l16.8-9.7L468.8,142.1z M416.2,13.1h-3.7v61.8h3.7V13.1z M378.2,0.8h-3.7v95.9h3.7V0.8z
		 M235.8,188.5l43.4-25.1l4.8-2.7l5.1-2.9l-1.8-3.2l-3.2,1.9l-12.1,7L234,185.3L235.8,188.5z M406.6,0.8h-5.7l1.4,2.5L406.6,0.8z
		 M378.2,316.3h-3.7v105.6h3.7V316.3z M403.6,5.7h-3.7v76.6h3.7V5.7z M390.9,0.8h-3.7v88.6h3.7V0.8z M412.6,562.7h3.7V501h-3.7
		V562.7z M399.9,493.6v76.6h3.7v-76.6H399.9z M468.8,467.4l-1.8-3.2l-42.3,24.4l-11.3,6.5l1.8,3.2l16.8-9.7L468.8,467.4z
		 M466.9,272.3l-79,45.6l1.8,3.2l79-45.6L466.9,272.3z M377.3,476.3l91.4-52.8l-1.8-3.2l-91.4,52.8L377.3,476.3z M390.9,486.4h-3.7
		v90.8h3.7V486.4z M466.9,286.9l-66.4,38.3l0.4,0.7l1.4,2.5l4.3-2.5l62.1-35.9L466.9,286.9z M468.8,304.8l-1.8-3.2L424.6,326
		l-11.3,6.5l1.8,3.2L432,326L468.8,304.8z M466.9,449.5l-66.4,38.3l0.4,0.7l1.4,2.5l4.3-2.5l62.1-35.9L466.9,449.5z M466.9,434.9
		l-79,45.6l1.8,3.2l79-45.6L466.9,434.9z M476.5,415.9L423,385l-1.8,3.2l53.5,30.9L476.5,415.9z M378.2,153.7h-3.7v105.6h3.7V153.7z
		 M336.5,562.7h3.7V501h-3.7V562.7z M377.3,461.6l78.8-45.5l-1.8-3.2l-78.8,45.5L377.3,461.6z M347.8,489.9l-2.2-1.3L284,453.1
		l-2.5-1.4l-1.8,3.2l4.3,2.5l54.2,31.3l7.8,4.5L347.8,489.9z M336.5,400.1h3.7v-61.8h-3.7V400.1z M360.5,482.6L284,438.5l-2.5-1.4
		l-1.8,3.2l4.3,2.5l74.7,43.1L360.5,482.6z M325.4,530.9L284,554.8l-25,14.4l1.8,3.2L284,559l43.3-25L325.4,530.9z M327.2,17
		l-1.8-3.2L284,37.6l-50,28.9l1.8,3.2L284,41.9L327.2,17z M378.2,478.9h-3.7v105.6h3.7V478.9z M249.4,79.9h-3.7v90.8h3.7V79.9z
		 M325.4,516.2L284,540.1l-37.6,21.7l1.8,3.2l35.7-20.6l43.3-25L325.4,516.2z M271.8,576.4l1.8,3.2l10.4-6l43.3-25l-1.8-3.2
		L284,569.4L271.8,576.4z M347.8,327.3l-2.2-1.3L284,290.5l-2.5-1.4l-1.8,3.2l4.3,2.5l54.2,31.3l7.8,4.5L347.8,327.3z M335,9.3
		l-14.8-8.6h-7.4l20.4,11.8L335,9.3z M347.8,2.1l-2.2-1.3h-7.4l7.8,4.5L347.8,2.1z M340.2,13.1h-3.7v61.8h3.7V13.1z M352.9,407.5
		v-76.6h-3.7v76.6H352.9z M352.9,5.7h-3.7v76.6h3.7V5.7z M365.6,0.8h-3.7v88.6h3.7V0.8z M360.5,320L284,275.8l-2.5-1.4l-1.8,3.2
		l4.3,2.5l74.7,43.1L360.5,320z M336.5,237.5h3.7v-61.8h-3.7V237.5z M360.5,157.4L284,113.2l-2.5-1.4l-1.8,3.2l4.3,2.5l74.7,43.1
		L360.5,157.4z M352.9,244.9v-76.6h-3.7v76.6H352.9z M347.8,164.7l-2.2-1.3L284,127.8l-2.5-1.4l-1.8,3.2l4.3,2.5l54.2,31.3l7.8,4.5
		L347.8,164.7z M249.4,0.8h-3.7v7.3h3.7V0.8z M969.6,5.7h-3.7v76.6h3.7V5.7z M956.9,0.8h-3.7v88.6h3.7V0.8z M944.2,153.7h-3.7v105.6
		h3.7V153.7z M944.2,0.8h-3.7v95.9h3.7V0.8z M906.2,13.1h-3.7v61.8h3.7V13.1z M972.6,0.8h-5.7l1.4,2.5L972.6,0.8z M913.8,2.1
		l-2.2-1.3h-7.4l7.8,4.5L913.8,2.1z M1042.5,90.6L989,59.7l-1.8,3.2l53.5,30.9L1042.5,90.6z M918.9,5.7h-3.7v76.6h3.7V5.7z
		 M931.6,0.8h-3.7v88.6h3.7V0.8z M944.2,316.3h-3.7v105.6h3.7V316.3z M944.2,478.9h-3.7v105.6h3.7V478.9z M982.2,13.1h-3.7v61.8h3.7
		V13.1z M1042.5,415.9L989,385l-1.8,3.2l53.5,30.9L1042.5,415.9z M1034.8,304.8l-1.8-3.2L990.6,326l-11.3,6.5l1.8,3.2L998,326
		L1034.8,304.8z M1032.9,434.9l-79,45.6l1.8,3.2l79-45.6L1032.9,434.9z M1032.9,449.5l-66.4,38.3l0.4,0.7l1.4,2.5l4.3-2.5l62.1-35.9
		L1032.9,449.5z M978.5,562.7h3.7V501h-3.7V562.7z M801.8,232.4l48.2-27.8l43.2-24.9l-1.8-3.2L850,200.3l-50,28.9L801.8,232.4z
		 M1032.9,124.3l-66.4,38.3l0.4,0.7l1.4,2.5l4.3-2.5l62.1-35.9L1032.9,124.3z M1034.8,142.1l-1.8-3.2l-42.3,24.4l-11.3,6.5l1.8,3.2
		l16.8-9.7L1034.8,142.1z M1042.5,253.2L989,222.4l-1.8,3.2l53.5,30.9L1042.5,253.2z M1032.9,272.3l-79,45.6l1.8,3.2l79-45.6
		L1032.9,272.3z M1032.9,286.9l-66.4,38.3l0.4,0.7l1.4,2.5l4.3-2.5l62.1-35.9L1032.9,286.9z M1032.9,109.7l-79,45.6l1.8,3.2l79-45.6
		L1032.9,109.7z M891.4,516.2L850,540.1l-37.6,21.7l1.8,3.2l35.7-20.6l43.3-25L891.4,516.2z M815.4,79.9h-3.7v90.8h3.7V79.9z
		 M891.4,530.9L850,554.8l-25,14.4l1.8,3.2L850,559l43.3-25L891.4,530.9z M893.2,17l-1.8-3.2L850,37.6l-50,28.9l1.8,3.2L850,41.9
		L893.2,17z M902.5,562.7h3.7V501h-3.7V562.7z M837.8,576.4l1.8,3.2l10.4-6l43.3-25l-1.8-3.2L850,569.4L837.8,576.4z M801.8,188.5
		l43.4-25.1l4.8-2.7l5.1-2.9l-1.8-3.2l-3.2,1.9l-12.1,7L800,185.3L801.8,188.5z M801.8,217.7l48.2-27.8l30.6-17.6l-1.8-3.2
		L850,185.6l-50,28.9L801.8,217.7z M801.8,203.1l48.2-27.8l17.8-10.3l-0.9-1.6l-0.9-1.6l-2.8,1.6L850,171l-50,28.9L801.8,203.1z
		 M840.7,94.4H837v61.8h3.7V94.4z M824.4,87v76.6h3.7V87H824.4z M926.5,157.4L850,113.2l-2.5-1.4l-1.8,3.2l4.3,2.5l74.7,43.1
		L926.5,157.4z M913.8,164.7l-2.2-1.3L850,127.8l-2.5-1.4l-1.8,3.2l4.3,2.5l54.2,31.3l7.8,4.5L913.8,164.7z M913.8,489.9l-2.2-1.3
		L850,453.1l-2.5-1.4l-1.8,3.2l4.3,2.5l54.2,31.3l7.8,4.5L913.8,489.9z M901,9.3l-14.8-8.6h-7.4l20.4,11.8L901,9.3z M926.5,320
		L850,275.8l-2.5-1.4l-1.8,3.2l4.3,2.5l74.7,43.1L926.5,320z M918.9,244.9v-76.6h-3.7v76.6H918.9z M902.5,237.5h3.7v-61.8h-3.7
		V237.5z M926.5,482.6L850,438.5l-2.5-1.4l-1.8,3.2l4.3,2.5l74.7,43.1L926.5,482.6z M918.9,570.1v-76.6h-3.7v76.6H918.9z
		 M913.8,327.3l-2.2-1.3L850,290.5l-2.5-1.4l-1.8,3.2l4.3,2.5l54.2,31.3l7.8,4.5L913.8,327.3z M918.9,407.5v-76.6h-3.7v76.6H918.9z
		 M902.5,400.1h3.7v-61.8h-3.7V400.1z M1034.8,467.4l-1.8-3.2l-42.3,24.4l-11.3,6.5l1.8,3.2l16.8-9.7L1034.8,467.4z M1068,238.7
		l-79-45.6l-1.8,3.2l79,45.6L1068,238.7z M1055.3,246L989,207.7l-1.8,3.2l66.3,38.3L1055.3,246z M1060.4,326.2v-76.6h-3.7v76.6
		H1060.4z M1047.7,156.2V94.4h-3.7v61.8H1047.7z M1055.3,83.4L989,45.1l-1.8,3.2l66.3,38.3L1055.3,83.4z M1060.4,488.8v-76.6h-3.7
		v76.6H1060.4z M1047.7,481.4v-61.8h-3.7v61.8H1047.7z M1055.3,408.6L989,370.4l-1.8,3.2l66.3,38.3L1055.3,408.6z M648.6,0.8h-3.7
		v88.6h3.7V0.8z M1060.4,163.6V87h-3.7v76.6H1060.4z M1068,401.3l-79-45.6l-1.8,3.2l79,45.6L1068,401.3z M1098.4,0.8h-3.7v7.3h3.7
		V0.8z M941.5,635.7l1.8,3.2l91.4-52.8l-1.8-3.2L941.5,635.7z M1085.7,0.8h-3.7v14.6h3.7V0.8z M1084.8,25.8l43.4-25.1h-7.4
		L1083,22.6L1084.8,25.8z M1085.7,72.4h-3.7V178h3.7V72.4z M1111.1,0.8h-3.7v0.2h3.7V0.8z M1068,76.1l-79-45.6l-1.8,3.2l79,45.6
		L1068,76.1z M1085.7,235h-3.7v105.6h3.7V235z M998,0.8h-7.4l-11.3,6.5l1.8,3.2L998,0.8z M1060.4,0.8h-3.7v0.2h3.7V0.8z
		 M1085.7,397.6h-3.7v105.6h3.7V397.6z M1073.1,0.8h-3.7v7.3h3.7V0.8z M965.9,493.6v76.6h3.7v-76.6H965.9z M943.3,432.4l53.3-30.7
		l-1.8-3.2l-53.3,30.7L943.3,432.4z M965.9,330.9v76.6h3.7v-76.6H965.9z M943.3,284.4l66-38.1l-1.8-3.2l-66,38.1L943.3,284.4z
		 M943.3,313.7l91.4-52.8l-1.8-3.2l-91.4,52.8L943.3,313.7z M943.3,299l78.8-45.5l-1.8-3.2l-78.8,45.5L943.3,299z M956.9,323.8h-3.7
		v90.8h3.7V323.8z M978.5,338.3v61.8h3.7v-61.8H978.5z M943.3,476.3l91.4-52.8l-1.8-3.2l-91.4,52.8L943.3,476.3z M956.9,486.4h-3.7
		v90.8h3.7V486.4z M943.3,461.6l78.8-45.5l-1.8-3.2l-78.8,45.5L943.3,461.6z M943.3,447l66-38.1l-1.8-3.2l-66,38.1L943.3,447z
		 M955.8,646.3l79-45.6l-1.8-3.2l-79,45.6L955.8,646.3z M941.5,591.8l1.8,3.2l53.3-30.7l-1.8-3.2L941.5,591.8z M943.3,121.8l66-38.1
		l-1.8-3.2l-66,38.1L943.3,121.8z M941.5,606.4l1.8,3.2l66-38.1l-1.8-3.2L941.5,606.4z M994.7,73.2l-53.3,30.7l1.8,3.2l53.3-30.7
		L994.7,73.2z M941.5,621.1l1.8,3.2l78.8-45.5l-1.8-3.2L941.5,621.1z M978.5,175.7v61.8h3.7v-61.8H978.5z M943.3,269.8l53.3-30.7
		l-1.8-3.2l-53.3,30.7L943.3,269.8z M965.9,168.3v76.6h3.7v-76.6H965.9z M943.3,151l91.4-52.8l-1.8-3.2l-91.4,52.8L943.3,151z
		 M956.9,161.2h-3.7V252h3.7V161.2z M943.3,136.4l78.8-45.5l-1.8-3.2l-78.8,45.5L943.3,136.4z M1047.7,318.8V257h-3.7v61.8H1047.7z
		 M660.3,299l78.8-45.5l-1.8-3.2l-78.8,45.5L660.3,299z M660.3,284.4l66-38.1l-1.8-3.2l-66,38.1L660.3,284.4z M660.3,313.7
		l91.4-52.8l-1.8-3.2l-91.4,52.8L660.3,313.7z M695.5,175.7v61.8h3.7v-61.8H695.5z M660.3,269.8l53.3-30.7l-1.8-3.2l-53.3,30.7
		L660.3,269.8z M682.9,168.3v76.6h3.7v-76.6H682.9z M673.9,323.8h-3.7v90.8h3.7V323.8z M772.3,408.6L706,370.4l-1.8,3.2l66.3,38.3
		L772.3,408.6z M660.3,461.6l78.8-45.5l-1.8-3.2l-78.8,45.5L660.3,461.6z M695.5,338.3v61.8h3.7v-61.8H695.5z M682.9,330.9v76.6h3.7
		v-76.6H682.9z M660.3,432.4l53.3-30.7l-1.8-3.2l-53.3,30.7L660.3,432.4z M764.7,481.4v-61.8H761v61.8H764.7z M658.5,606.4l1.8,3.2
		l66-38.1l-1.8-3.2L658.5,606.4z M658.5,621.1l1.8,3.2l78.8-45.5l-1.8-3.2L658.5,621.1z M672.8,646.3l79-45.6l-1.8-3.2l-79,45.6
		L672.8,646.3z M660.3,476.3l91.4-52.8l-1.8-3.2l-91.4,52.8L660.3,476.3z M658.5,635.7l1.8,3.2l91.4-52.8l-1.8-3.2L658.5,635.7z
		 M673.9,161.2h-3.7V252h3.7V161.2z M660.3,151l91.4-52.8l-1.8-3.2l-91.4,52.8L660.3,151z M660.3,136.4l78.8-45.5l-1.8-3.2
		l-78.8,45.5L660.3,136.4z M660.3,121.8l66-38.1l-1.8-3.2l-66,38.1L660.3,121.8z M658.5,591.8l1.8,3.2l53.3-30.7l-1.8-3.2
		L658.5,591.8z M711.7,73.2l-53.3,30.7l1.8,3.2l53.3-30.7L711.7,73.2z M660.3,447l66-38.1l-1.8-3.2l-66,38.1L660.3,447z M699.2,13.1
		h-3.7v61.8h3.7V13.1z M689.6,0.8h-5.7l1.4,2.5L689.6,0.8z M759.5,90.6L706,59.7l-1.8,3.2l53.5,30.9L759.5,90.6z M749.9,124.3
		l-66.4,38.3l0.4,0.7l1.4,2.5l4.3-2.5l62.1-35.9L749.9,124.3z M749.9,109.7l-79,45.6l1.8,3.2l79-45.6L749.9,109.7z M686.6,5.7h-3.7
		v76.6h3.7V5.7z M661.2,478.9h-3.7v105.6h3.7V478.9z M661.2,316.3h-3.7v105.6h3.7V316.3z M661.2,153.7h-3.7v105.6h3.7V153.7z
		 M661.2,0.8h-3.7v95.9h3.7V0.8z M673.9,0.8h-3.7v88.6h3.7V0.8z M695.5,562.7h3.7V501h-3.7V562.7z M749.9,434.9l-79,45.6l1.8,3.2
		l79-45.6L749.9,434.9z M749.9,449.5l-66.4,38.3l0.4,0.7l1.4,2.5l4.3-2.5l62.1-35.9L749.9,449.5z M751.8,142.1l-1.8-3.2l-42.3,24.4
		l-11.3,6.5l1.8,3.2l16.8-9.7L751.8,142.1z M673.9,486.4h-3.7v90.8h3.7V486.4z M682.9,493.6v76.6h3.7v-76.6H682.9z M751.8,467.4
		l-1.8-3.2l-42.3,24.4l-11.3,6.5l1.8,3.2l16.8-9.7L751.8,467.4z M749.9,272.3l-79,45.6l1.8,3.2l79-45.6L749.9,272.3z M759.5,253.2
		L706,222.4l-1.8,3.2l53.5,30.9L759.5,253.2z M759.5,415.9L706,385l-1.8,3.2l53.5,30.9L759.5,415.9z M751.8,304.8l-1.8-3.2
		L707.6,326l-11.3,6.5l1.8,3.2L715,326L751.8,304.8z M749.9,286.9l-66.4,38.3l0.4,0.7l1.4,2.5l4.3-2.5l62.1-35.9L749.9,286.9z
		 M802.7,235H799v105.6h3.7V235z M891.4,368.2L850,392.1l-25,14.4l1.8,3.2l23.2-13.4l43.3-25L891.4,368.2z M893.3,386.1l-1.8-3.2
		L850,406.8l-12.2,7l1.8,3.2l10.4-6L893.3,386.1z M801.8,557.6l48.2-27.8l43.2-24.9l-1.8-3.2L850,525.5l-50,28.9L801.8,557.6z
		 M893.3,60.8l-1.8-3.2L850,81.5l-12.2,7l1.8,3.2l10.4-6L893.3,60.8z M901,497.2l-14.8-8.6L850,467.7l-2.5-1.4l-1.8,3.2l4.3,2.5
		l28.8,16.6l20.4,11.8L901,497.2z M901,171.9l-14.8-8.6L850,142.5l-2.5-1.4l-1.8,3.2l4.3,2.5l28.8,16.6l20.4,11.8L901,171.9z
		 M901,334.6l-14.8-8.6L850,305.1l-2.5-1.4l-1.8,3.2l4.3,2.5l28.8,16.6l20.4,11.8L901,334.6z M891.4,191L850,214.9l-37.6,21.7
		l1.8,3.2l35.7-20.6l43.3-25L891.4,191z M801.8,543l48.2-27.8l30.6-17.6l-1.8-3.2L850,510.9l-50,28.9L801.8,543z M891.4,205.6
		L850,229.5L825,244l1.8,3.2l23.2-13.4l43.3-25L891.4,205.6z M893.3,223.4l-1.8-3.2L850,244.2l-12.2,7l1.8,3.2l10.4-6L893.3,223.4z
		 M891.4,353.6L850,377.5l-37.6,21.7l1.8,3.2l35.7-20.6l43.3-25L891.4,353.6z M840.7,257H837v61.8h3.7V257z M801.8,528.3l48.2-27.8
		l17.8-10.3l-0.9-1.6L866,487l-2.8,1.6l-13.2,7.6l-50,28.9L801.8,528.3z M801.8,365.7l48.2-27.8l17.8-10.3l-0.9-1.6l-0.9-1.6
		l-2.8,1.6l-13.2,7.6l-50,28.9L801.8,365.7z M801.8,351.1l43.4-25.1l4.8-2.7l5.1-2.9l-1.8-3.2L850,319l-12.1,7L800,347.9
		L801.8,351.1z M824.4,249.6v76.6h3.7v-76.6H824.4z M801.8,380.3l48.2-27.8l30.6-17.6l-1.8-3.2L850,348.2l-50,28.9L801.8,380.3z
		 M840.7,419.6H837v61.8h3.7V419.6z M801.8,395l48.2-27.8l43.2-24.9l-1.8-3.2L850,362.9l-50,28.9L801.8,395z M824.4,412.2v76.6h3.7
		v-76.6H824.4z M801.8,513.7l43.4-25.1l4.8-2.7l5.1-2.9l-1.8-3.2l-3.2,1.9l-12.1,7L800,510.5L801.8,513.7z M815.4,405.1h-3.7v90.8
		h3.7V405.1z M802.7,0.8H799v14.6h3.7V0.8z M777.4,163.6V87h-3.7v76.6H777.4z M772.3,83.4L706,45.1l-1.8,3.2l66.3,38.3L772.3,83.4z
		 M785,76.1l-79-45.6l-1.8,3.2l79,45.6L785,76.1z M764.7,156.2V94.4H761v61.8H764.7z M715,0.8h-7.4l-11.3,6.5l1.8,3.2L715,0.8z
		 M777.4,0.8h-3.7v0.2h3.7V0.8z M785,401.3l-79-45.6l-1.8,3.2l79,45.6L785,401.3z M764.7,318.8V257H761v61.8H764.7z M785,238.7
		l-79-45.6l-1.8,3.2l79,45.6L785,238.7z M772.3,246L706,207.7l-1.8,3.2l66.3,38.3L772.3,246z M777.4,326.2v-76.6h-3.7v76.6H777.4z
		 M777.4,488.8v-76.6h-3.7v76.6H777.4z M801.8,25.8l43.4-25.1h-7.4L800,22.6L801.8,25.8z M828.1,0.8h-3.7v0.2h3.7V0.8z M801.8,40.5
		L850,12.6l17.8-10.3l-0.9-1.6h-3.7L850,8.4l-50,28.9L801.8,40.5z M891.4,28.4L850,52.3L812.4,74l1.8,3.2L850,56.5l43.3-25
		L891.4,28.4z M800,51.9l1.8,3.2L850,27.3l30.6-17.6l-1.8-3.2L850,23L800,51.9z M802.7,72.4H799V178h3.7V72.4z M815.4,242.5h-3.7
		v90.8h3.7V242.5z M802.7,397.6H799v105.6h3.7V397.6z M891.4,43L850,66.9l-25,14.4l1.8,3.2L850,71.2l43.3-25L891.4,43z M790.1,0.8
		h-3.7v7.3h3.7V0.8z M815.4,0.8h-3.7v7.3h3.7V0.8z M608.4,530.9L567,554.8l-25,14.4l1.8,3.2L567,559l43.3-25L608.4,530.9z
		 M704.2,344.3l91.4,52.8l1.8-3.2l-91.4-52.8L704.2,344.3z M744.1,319.2l-1.8,3.2l6.3,3.6l47.1,27.2l1.8-3.2l-41.6-24L744.1,319.2z
		 M786.4,79.9v90.8h3.7V79.9H786.4z M670.2,651.2h3.7V649h-3.7V651.2z M786.4,405.1v90.8h3.7v-90.8H786.4z M744.1,481.8l-1.8,3.2
		l6.3,3.6l47.1,27.2l1.8-3.2l-41.6-24L744.1,481.8z M786.4,242.5v90.8h3.7v-90.8H786.4z M744.1,156.5l-1.8,3.2l6.3,3.6l47.1,27.2
		l1.8-3.2l-41.6-24L744.1,156.5z M729.4,492.2l66.2,38.2l1.8-3.2L731.3,489L729.4,492.2z M729.4,167l66.2,38.2l1.8-3.2l-66.2-38.2
		L729.4,167z M704.2,181.7l91.4,52.8l1.8-3.2l-91.4-52.8L704.2,181.7z M716.9,174.4l78.8,45.5l1.8-3.2l-78.8-45.5L716.9,174.4z
		 M729.4,329.6l66.2,38.2l1.8-3.2l-66.2-38.2L729.4,329.6z M742.2,647.6l6.3,3.6h7.4l-11.8-6.8L742.2,647.6z M704.2,550.8l53.5,30.9
		l1.8-3.2L706,547.6L704.2,550.8z M749.9,626.8l-42.3,24.4h7.4l36.8-21.2L749.9,626.8z M749.9,612.2l-66.4,38.3l0.4,0.7h5.7
		l62.1-35.9L749.9,612.2z M761,644h3.7v-61.8H761V644z M704.2,521.5l79,45.6l1.8-3.2l-79-45.6L704.2,521.5z M786.4,651.2h3.7v-83.5
		h-3.7V651.2z M704.2,506.9l91.4,52.8l1.8-3.2l-91.4-52.8L704.2,506.9z M773.7,651.2h3.7v-76.4h-3.7V651.2z M716.9,499.6l78.8,45.5
		l1.8-3.2l-78.8-45.5L716.9,499.6z M704.2,536.2l66.3,38.3l1.8-3.2L706,533L704.2,536.2z M716.9,337l78.8,45.5l1.8-3.2l-78.8-45.5
		L716.9,337z M704.2,19.1l91.4,52.8l1.8-3.2l-91.4-52.8L704.2,19.1z M870.9,573.5l66.2,38.2l1.8-3.2l-66.2-38.2L870.9,573.5z
		 M927.9,651.2h3.7V649h-3.7V651.2z M883.7,566.3l53.4,30.8l1.8-3.2l-53.4-30.8L883.7,566.3z M847.5,599.6l-1.8,3.2l4.3,2.5
		l74.7,43.1l1.8-3.2L850,601.1L847.5,599.6z M847.6,585l-1.8,3.2l4.3,2.5l87.1,50.3l1.8-3.2l-89-51.4L847.6,585z M870.9,410.9
		l66.2,38.2l1.8-3.2l-66.2-38.2L870.9,410.9z M927.9,486.4v90.8h3.7v-90.8H927.9z M883.7,403.7l53.4,30.8l1.8-3.2l-53.4-30.8
		L883.7,403.7z M847.6,422.4l-1.8,3.2l4.3,2.5l87.1,50.3l1.8-3.2l-89-51.4L847.6,422.4z M858.4,418.3l78.8,45.5l1.8-3.2l-78.8-45.5
		L858.4,418.3z M858.4,580.9l78.8,45.5l1.8-3.2l-78.8-45.5L858.4,580.9z M799,651.2h3.7v-91H799V651.2z M748.5,0.8L795.6,28l1.8-3.2
		l-41.6-24H748.5z M729.4,4.4l66.2,38.2l1.8-3.2L731.3,1.2L729.4,4.4z M811.7,651.2h3.7v-83.5h-3.7V651.2z M716.9,11.7l78.8,45.5
		l1.8-3.2L718.7,8.5L716.9,11.7z M847.5,628.9l-1.8,3.2l4.3,2.5l28.8,16.6h7.4L850,630.3L847.5,628.9z M847.5,614.3l-1.8,3.2
		l4.3,2.5l54.2,31.3h7.4L850,615.7L847.5,614.3z M863.2,651.2h3.7l-0.9-1.6L863.2,651.2z M850,644.2l-12.1,7h7.4l4.8-2.7l5.1-2.9
		l-1.8-3.2L850,644.2z M840.7,582.3H837V644h3.7V582.3z M824.4,651.2h3.7v-76.4h-3.7V651.2z M644.9,323.8v90.8h3.7v-90.8H644.9z
		 M433.9,11.7l78.8,45.5l1.8-3.2L435.7,8.5L433.9,11.7z M446.4,4.4l66.2,38.2l1.8-3.2L448.3,1.2L446.4,4.4z M421.2,19.1l91.4,52.8
		l1.8-3.2l-91.4-52.8L421.2,19.1z M465.5,0.8L512.6,28l1.8-3.2l-41.6-24H465.5z M503.4,79.9v90.8h3.7V79.9H503.4z M461.1,156.5
		l-1.8,3.2l6.3,3.6l47.1,27.2l1.8-3.2l-41.6-24L461.1,156.5z M528.7,651.2h3.7v-83.5h-3.7V651.2z M557.7,582.3h-3.7V644h3.7V582.3z
		 M567,644.2l-12.1,7h7.4l4.8-2.7l5.1-2.9l-1.8-3.2L567,644.2z M541.4,651.2h3.7v-76.4h-3.7V651.2z M446.4,167l66.2,38.2l1.8-3.2
		l-66.2-38.2L446.4,167z M516,651.2h3.7v-91H516V651.2z M580.2,651.2h3.7l-0.9-1.6L580.2,651.2z M503.4,405.1v90.8h3.7v-90.8H503.4z
		 M461.1,481.8l-1.8,3.2l6.3,3.6l47.1,27.2l1.8-3.2l-41.6-24L461.1,481.8z M421.2,344.3l91.4,52.8l1.8-3.2l-91.4-52.8L421.2,344.3z
		 M446.4,492.2l66.2,38.2l1.8-3.2L448.3,489L446.4,492.2z M433.9,499.6l78.8,45.5l1.8-3.2l-78.8-45.5L433.9,499.6z M461.1,319.2
		l-1.8,3.2l6.3,3.6l47.1,27.2l1.8-3.2l-41.6-24L461.1,319.2z M503.4,242.5v90.8h3.7v-90.8H503.4z M421.2,181.7l91.4,52.8l1.8-3.2
		l-91.4-52.8L421.2,181.7z M433.9,337l78.8,45.5l1.8-3.2l-78.8-45.5L433.9,337z M446.4,329.6l66.2,38.2l1.8-3.2l-66.2-38.2
		L446.4,329.6z M433.9,174.4l78.8,45.5l1.8-3.2l-78.8-45.5L433.9,174.4z M587.9,573.5l66.2,38.2l1.8-3.2l-66.2-38.2L587.9,573.5z
		 M587.9,248.3l66.2,38.2l1.8-3.2l-66.2-38.2L587.9,248.3z M600.7,403.7l53.4,30.8l1.8-3.2l-53.4-30.8L600.7,403.7z M575.4,255.7
		l78.8,45.5l1.8-3.2l-78.8-45.5L575.4,255.7z M564.6,259.8l-1.8,3.2l4.3,2.5l87.1,50.3l1.8-3.2l-89-51.4L564.6,259.8z M927.9,323.8
		v90.8h3.7v-90.8H927.9z M600.7,241.1l53.4,30.8l1.8-3.2l-53.4-30.8L600.7,241.1z M587.9,85.7l66.2,38.2l1.8-3.2l-66.2-38.2
		L587.9,85.7z M600.7,78.4l53.4,30.8l1.8-3.2l-53.4-30.8L600.7,78.4z M575.4,93.1l78.8,45.5l1.8-3.2l-78.8-45.5L575.4,93.1z
		 M644.9,161.2V252h3.7v-90.8H644.9z M564.6,97.2l-1.8,3.2l4.3,2.5l87.1,50.3l1.8-3.2l-89-51.4L564.6,97.2z M564.5,599.6l-1.8,3.2
		l4.3,2.5l74.7,43.1l1.8-3.2L567,601.1L564.5,599.6z M644.9,651.2h3.7V649h-3.7V651.2z M575.4,580.9l78.8,45.5l1.8-3.2l-78.8-45.5
		L575.4,580.9z M564.6,585l-1.8,3.2l4.3,2.5l87.1,50.3l1.8-3.2l-89-51.4L564.6,585z M564.5,628.9l-1.8,3.2l4.3,2.5l28.8,16.6h7.4
		L567,630.3L564.5,628.9z M587.9,410.9l66.2,38.2l1.8-3.2l-66.2-38.2L587.9,410.9z M564.5,614.3l-1.8,3.2l4.3,2.5l54.2,31.3h7.4
		L567,615.7L564.5,614.3z M575.4,418.3l78.8,45.5l1.8-3.2l-78.8-45.5L575.4,418.3z M564.6,422.4l-1.8,3.2l4.3,2.5l87.1,50.3l1.8-3.2
		l-89-51.4L564.6,422.4z M657.5,651.2h3.7v-9.7h-3.7V651.2z M600.7,566.3l53.4,30.8l1.8-3.2l-53.4-30.8L600.7,566.3z M644.9,486.4
		v90.8h3.7v-90.8H644.9z M1094.7,79.9v90.8h3.7V79.9H1094.7z M1097.3,402.4l35.7-20.6v-4.3l-37.6,21.7L1097.3,402.4z M1084.8,380.3
		l48.2-27.8v-4.3l-50,28.9L1084.8,380.3z M1109.8,409.8l23.2-13.4v-4.3l-25,14.4L1109.8,409.8z M1084.8,395l48.2-27.8v-4.3l-50,28.9
		L1084.8,395z M1122.6,417l10.4-6v-4.3l-12.2,7L1122.6,417z M1128.7,306.9l4.3,2.5v-4.3l-2.5-1.4L1128.7,306.9z M1084.8,365.7
		l48.2-27.8v-4.3l-50,28.9L1084.8,365.7z M1123.7,257h-3.7v61.8h3.7V257z M1122.6,579.6l10.4-6v-4.3l-12.2,7L1122.6,579.6z
		 M1094.7,242.5v90.8h3.7v-90.8H1094.7z M1083,347.9l1.8,3.2l43.4-25.1l4.8-2.7V319l-12.1,7L1083,347.9z M1128.7,440.2l4.3,2.5v-4.3
		l-2.5-1.4L1128.7,440.2z M1128.7,425.6l4.3,2.5v-4.3l-2.4-1.4L1128.7,425.6z M1084.8,528.3l48.2-27.8v-4.3l-50,28.9L1084.8,528.3z
		 M1084.8,543l48.2-27.8v-4.3l-50,28.9L1084.8,543z M1084.8,557.6l48.2-27.8v-4.3l-50,28.9L1084.8,557.6z M1097.3,565l35.7-20.6
		v-4.3l-37.6,21.7L1097.3,565z M1109.8,572.4L1133,559v-4.3l-25,14.4L1109.8,572.4z M1123.7,419.6h-3.7v61.8h3.7V419.6z
		 M1128.7,454.9l4.3,2.5v-4.3l-2.5-1.4L1128.7,454.9z M1128.7,469.5l4.3,2.5v-4.3l-2.5-1.4L1128.7,469.5z M1107.4,412.2v76.6h3.7
		v-76.6H1107.4z M1094.7,405.1v90.8h3.7v-90.8H1094.7z M1083,510.5l1.8,3.2l43.4-25.1l4.8-2.7v-4.3l-12.1,7L1083,510.5z
		 M1107.4,249.6v76.6h3.7v-76.6H1107.4z M847.6,259.8l-1.8,3.2l4.3,2.5l87.1,50.3l1.8-3.2l-89-51.4L847.6,259.8z M1128.7,115
		l4.3,2.5v-4.3l-2.5-1.4L1128.7,115z M1128.7,100.4l4.3,2.5v-4.3l-2.4-1.4L1128.7,100.4z M1128.7,129.6l4.3,2.5v-4.3l-2.5-1.4
		L1128.7,129.6z M1128.7,144.3l4.3,2.5v-4.3l-2.5-1.4L1128.7,144.3z M1083,37.3l1.8,3.2l48.2-27.8V8.4L1083,37.3z M1123.7,94.4h-3.7
		v61.8h3.7V94.4z M1084.8,55.1l48.2-27.8V23l-50,28.9L1084.8,55.1z M1109.8,84.5l23.2-13.4v-4.3l-25,14.4L1109.8,84.5z M1084.8,69.7
		l48.2-27.8v-4.3l-50,28.9L1084.8,69.7z M1097.3,77.2l35.7-20.6v-4.3L1095.4,74L1097.3,77.2z M421.2,506.9l91.4,52.8l1.8-3.2
		l-91.4-52.8L421.2,506.9z M1109.8,247.2l23.2-13.4v-4.3l-25,14.4L1109.8,247.2z M1122.6,254.4l10.4-6v-4.3l-12.2,7L1122.6,254.4z
		 M1107.4,87v76.6h3.7V87H1107.4z M1128.7,263l4.3,2.5v-4.3l-2.4-1.4L1128.7,263z M1128.7,277.6l4.3,2.5v-4.3l-2.5-1.4L1128.7,277.6
		z M1097.3,239.8l35.7-20.6v-4.3l-37.6,21.7L1097.3,239.8z M1084.8,232.4l48.2-27.8v-4.3l-50,28.9L1084.8,232.4z M1083,185.3
		l1.8,3.2l43.4-25.1l4.8-2.7v-4.3l-12.1,7L1083,185.3z M1128.7,292.2l4.3,2.5v-4.3l-2.5-1.4L1128.7,292.2z M1084.8,217.7l48.2-27.8
		v-4.3l-50,28.9L1084.8,217.7z M1084.8,203.1l48.2-27.8V171l-50,28.9L1084.8,203.1z M1122.6,91.8l10.4-6v-4.3l-12.2,7L1122.6,91.8z
		 M1044,644h3.7v-61.8h-3.7V644z M987.2,536.2l66.3,38.3l1.8-3.2L989,533L987.2,536.2z M1056.7,651.2h3.7v-76.4h-3.7V651.2z
		 M987.2,550.8l53.5,30.9l1.8-3.2L989,547.6L987.2,550.8z M1032.9,626.8l-42.3,24.4h7.4l36.8-21.2L1032.9,626.8z M1025.2,647.6
		l6.3,3.6h7.4l-11.8-6.8L1025.2,647.6z M1012.4,492.2l66.2,38.2l1.8-3.2l-66.2-38.2L1012.4,492.2z M1128.7,588.2l4.3,2.5v-4.3
		l-2.4-1.4L1128.7,588.2z M987.2,506.9l91.4,52.8l1.8-3.2l-91.4-52.8L987.2,506.9z M987.2,521.5l79,45.6l1.8-3.2l-79-45.6
		L987.2,521.5z M1027.1,481.8l-1.8,3.2l6.3,3.6l47.1,27.2l1.8-3.2l-41.6-24L1027.1,481.8z M1069.4,651.2h3.7v-83.5h-3.7V651.2z
		 M883.7,241.1l53.4,30.8l1.8-3.2l-53.4-30.8L883.7,241.1z M927.9,161.2V252h3.7v-90.8H927.9z M870.9,248.3l66.2,38.2l1.8-3.2
		l-66.2-38.2L870.9,248.3z M858.4,255.7l78.8,45.5l1.8-3.2l-78.8-45.5L858.4,255.7z M847.6,97.2l-1.8,3.2l4.3,2.5l87.1,50.3l1.8-3.2
		l-89-51.4L847.6,97.2z M883.7,78.4l53.4,30.8l1.8-3.2l-53.4-30.8L883.7,78.4z M940.5,651.2h3.7v-9.7h-3.7V651.2z M953.2,651.2h3.7
		V649h-3.7V651.2z M870.9,85.7l66.2,38.2l1.8-3.2l-66.2-38.2L870.9,85.7z M1032.9,612.2l-66.4,38.3l0.4,0.7h5.7l62.1-35.9
		L1032.9,612.2z M858.4,93.1l78.8,45.5l1.8-3.2l-78.8-45.5L858.4,93.1z M999.9,499.6l78.8,45.5l1.8-3.2l-78.8-45.5L999.9,499.6z
		 M999.9,11.7l78.8,45.5l1.8-3.2l-78.8-45.5L999.9,11.7z M1082,651.2h3.7v-91h-3.7V651.2z M1107.4,651.2h3.7v-76.4h-3.7V651.2z
		 M1031.5,0.8l47.1,27.2l1.8-3.2l-41.6-24H1031.5z M1012.4,4.4l66.2,38.2l1.8-3.2l-66.2-38.2L1012.4,4.4z M1094.7,651.2h3.7v-83.5
		h-3.7V651.2z M1128.7,602.8l4.3,2.5v-4.3l-2.5-1.4L1128.7,602.8z M1128.7,617.5l4.3,2.5v-4.3l-2.5-1.4L1128.7,617.5z M1123.7,582.3
		h-3.7V644h3.7V582.3z M1128.7,632.1l4.3,2.5v-4.3l-2.5-1.4L1128.7,632.1z M1128.2,651.2l4.8-2.7v-4.3l-12.1,7H1128.2z M987.2,19.1
		l91.4,52.8l1.8-3.2l-91.4-52.8L987.2,19.1z M1069.4,405.1v90.8h3.7v-90.8H1069.4z M1069.4,242.5v90.8h3.7v-90.8H1069.4z
		 M1027.1,319.2l-1.8,3.2l6.3,3.6l47.1,27.2l1.8-3.2l-41.6-24L1027.1,319.2z M987.2,344.3l91.4,52.8l1.8-3.2l-91.4-52.8L987.2,344.3
		z M999.9,337l78.8,45.5l1.8-3.2l-78.8-45.5L999.9,337z M1012.4,329.6l66.2,38.2l1.8-3.2l-66.2-38.2L1012.4,329.6z M1069.4,79.9
		v90.8h3.7V79.9H1069.4z M1027.1,156.5l-1.8,3.2l6.3,3.6l47.1,27.2l1.8-3.2l-41.6-24L1027.1,156.5z M1012.4,167l66.2,38.2l1.8-3.2
		l-66.2-38.2L1012.4,167z M999.9,174.4l78.8,45.5l1.8-3.2l-78.8-45.5L999.9,174.4z M987.2,181.7l91.4,52.8l1.8-3.2l-91.4-52.8
		L987.2,181.7z M178.1,156.5l-1.8,3.2l6.3,3.6l47.1,27.2l1.8-3.2l-41.6-24L178.1,156.5z M53.5,237.5h3.7v-61.8h-3.7V237.5z
		 M77.5,157.4L1,113.2v4.3l74.7,43.1L77.5,157.4z M62.9,167.9l1.8-3.2l-2.2-1.3L1,127.8v4.3l54.2,31.3L62.9,167.9z M69.9,244.9
		v-76.6h-3.7v76.6H69.9z M42.4,57.6L1,81.5v4.3l43.3-25L42.4,57.6z M42.4,28.4L1,52.3v4.3l43.3-25L42.4,28.4z M42.4,516.2L1,540.1
		v4.3l43.3-25L42.4,516.2z M50.2,175.1l1.8-3.2l-14.8-8.6L1,142.5v4.3l28.8,16.6L50.2,175.1z M29.7,169L1,185.6v4.3l30.6-17.6
		L29.7,169z M42.4,176.4L1,200.3v4.3l43.2-24.9L42.4,176.4z M17.9,163.4l-0.9-1.6l-2.8,1.6L1,171v4.3L18.8,165L17.9,163.4z
		 M4.2,154.5L1,156.4v4.3l5.1-2.9L4.2,154.5z M95.2,316.3h-3.7v105.6h3.7V316.3z M82.6,0.8h-3.7v88.6h3.7V0.8z M95.2,478.9h-3.7
		v105.6h3.7V478.9z M95.2,153.7h-3.7v105.6h3.7V153.7z M42.4,191L1,214.9v4.3l43.3-25L42.4,191z M69.9,5.7h-3.7v76.6h3.7V5.7z
		 M52,9.3L37.2,0.8h-7.4l20.4,11.8L52,9.3z M17.9,0.8h-3.7L1,8.4v4.3L18.8,2.3L17.9,0.8z M64.8,2.1l-2.2-1.3h-7.4l7.8,4.5L64.8,2.1z
		 M29.7,6.4L1,23v4.3L31.6,9.6L29.7,6.4z M42.4,13.8L1,37.6v4.3L44.2,17L42.4,13.8z M57.2,13.1h-3.7v61.8h3.7V13.1z M62.9,493.1
		l1.8-3.2l-2.2-1.3L1,453.1v4.3l54.2,31.3L62.9,493.1z M95.2,0.8h-3.7v95.9h3.7V0.8z M53.5,562.7h3.7V501h-3.7V562.7z M69.9,570.1
		v-76.6h-3.7v76.6H69.9z M42.4,382.9L1,406.8v4.3l43.3-25L42.4,382.9z M77.5,482.6L1,438.5v4.3l74.7,43.1L77.5,482.6z M17.9,488.6
		L17,487l-2.8,1.6L1,496.2v4.3l17.8-10.3L17.9,488.6z M50.2,500.4l1.8-3.2l-14.8-8.6L1,467.7v4.3l28.8,16.6L50.2,500.4z M29.7,494.3
		L1,510.9v4.3l30.6-17.6L29.7,494.3z M42.4,501.6L1,525.5v4.3l43.2-24.9L42.4,501.6z M4.2,479.7L1,481.6v4.3l5.1-2.9L4.2,479.7z
		 M42.4,368.2L1,392.1v4.3l43.3-25L42.4,368.2z M50.2,337.8l1.8-3.2L37.2,326L1,305.1v4.3L29.8,326L50.2,337.8z M503.4,651.2h3.7
		v-83.5h-3.7V651.2z M62.9,330.5l1.8-3.2l-2.2-1.3L1,290.5v4.3L55.2,326L62.9,330.5z M53.5,400.1h3.7v-61.8h-3.7V400.1z M77.5,320
		L1,275.8v4.3l74.7,43.1L77.5,320z M42.4,220.3L1,244.2v4.3l43.3-25L42.4,220.3z M29.7,331.7L1,348.2v4.3l30.6-17.6L29.7,331.7z
		 M42.4,205.6L1,229.5v4.3l43.3-25L42.4,205.6z M42.4,339L1,362.9v4.3l43.2-24.9L42.4,339z M42.4,353.6L1,377.5v4.3l43.3-25
		L42.4,353.6z M17.9,326l-0.9-1.6l-2.8,1.6L1,333.6v4.3l17.8-10.3L17.9,326z M4.2,317.1L1,319v4.3l5.1-2.9L4.2,317.1z M42.4,43
		L1,66.9v4.3l43.3-25L42.4,43z M116.9,168.3v76.6h3.7v-76.6H116.9z M94.3,269.8l53.3-30.7l-1.8-3.2l-53.3,30.7L94.3,269.8z
		 M107.9,161.2h-3.7V252h3.7V161.2z M94.3,151l91.4-52.8l-1.8-3.2l-91.4,52.8L94.3,151z M94.3,136.4l78.8-45.5l-1.8-3.2l-78.8,45.5
		L94.3,136.4z M145.7,73.2l-53.3,30.7l1.8,3.2l53.3-30.7L145.7,73.2z M129.6,175.7v61.8h3.7v-61.8H129.6z M107.9,323.8h-3.7v90.8
		h3.7V323.8z M94.3,313.7l91.4-52.8l-1.8-3.2l-91.4,52.8L94.3,313.7z M107.9,0.8h-3.7v88.6h3.7V0.8z M94.3,299l78.8-45.5l-1.8-3.2
		l-78.8,45.5L94.3,299z M206.3,408.6L140,370.4l-1.8,3.2l66.3,38.3L206.3,408.6z M211.4,488.8v-76.6h-3.7v76.6H211.4z M198.7,481.4
		v-61.8H195v61.8H198.7z M94.3,432.4l53.3-30.7l-1.8-3.2l-53.3,30.7L94.3,432.4z M219,401.3l-79-45.6l-1.8,3.2l79,45.6L219,401.3z
		 M198.7,318.8V257H195v61.8H198.7z M92.5,621.1l1.8,3.2l78.8-45.5l-1.8-3.2L92.5,621.1z M92.5,606.4l1.8,3.2l66-38.1l-1.8-3.2
		L92.5,606.4z M92.5,591.8l1.8,3.2l53.3-30.7l-1.8-3.2L92.5,591.8z M94.3,121.8l66-38.1l-1.8-3.2l-66,38.1L94.3,121.8z M106.8,646.3
		l79-45.6l-1.8-3.2l-79,45.6L106.8,646.3z M92.5,635.7l1.8,3.2l91.4-52.8l-1.8-3.2L92.5,635.7z M94.3,284.4l66-38.1l-1.8-3.2
		l-66,38.1L94.3,284.4z M193.5,253.2L140,222.4l-1.8,3.2l53.5,30.9L193.5,253.2z M185.8,142.1l-1.8-3.2l-42.3,24.4l-11.3,6.5
		l1.8,3.2l16.8-9.7L185.8,142.1z M183.9,286.9l-66.4,38.3l0.4,0.7l1.4,2.5l4.3-2.5l62.1-35.9L183.9,286.9z M116.9,330.9v76.6h3.7
		v-76.6H116.9z M183.9,272.3l-79,45.6l1.8,3.2l79-45.6L183.9,272.3z M133.2,13.1h-3.7v61.8h3.7V13.1z M120.6,5.7h-3.7v76.6h3.7V5.7z
		 M123.6,0.8h-5.7l1.4,2.5L123.6,0.8z M183.9,109.7l-79,45.6l1.8,3.2l79-45.6L183.9,109.7z M185.8,304.8l-1.8-3.2L141.6,326
		l-11.3,6.5l1.8,3.2L149,326L185.8,304.8z M193.5,90.6L140,59.7l-1.8,3.2l53.5,30.9L193.5,90.6z M183.9,124.3l-66.4,38.3l0.4,0.7
		l1.4,2.5l4.3-2.5l62.1-35.9L183.9,124.3z M107.9,486.4h-3.7v90.8h3.7V486.4z M94.3,476.3l91.4-52.8l-1.8-3.2l-91.4,52.8L94.3,476.3
		z M94.3,461.6l78.8-45.5l-1.8-3.2l-78.8,45.5L94.3,461.6z M193.5,415.9L140,385l-1.8,3.2l53.5,30.9L193.5,415.9z M94.3,447l66-38.1
		l-1.8-3.2l-66,38.1L94.3,447z M129.6,338.3v61.8h3.7v-61.8H129.6z M116.9,493.6v76.6h3.7v-76.6H116.9z M183.9,434.9l-79,45.6
		l1.8,3.2l79-45.6L183.9,434.9z M183.9,449.5l-66.4,38.3l0.4,0.7l1.4,2.5l4.3-2.5l62.1-35.9L183.9,449.5z M185.8,467.4l-1.8-3.2
		l-42.3,24.4l-11.3,6.5l1.8,3.2l16.8-9.7L185.8,467.4z M129.6,562.7h3.7V501h-3.7V562.7z M69.9,407.5v-76.6h-3.7v76.6H69.9z
		 M274.7,582.3H271V644h3.7V582.3z M281.5,614.3l-1.8,3.2l4.3,2.5l54.2,31.3h7.4L284,615.7L281.5,614.3z M42.4,530.9L1,554.8v4.3
		l43.3-25L42.4,530.9z M281.5,628.9l-1.8,3.2l4.3,2.5l28.8,16.6h7.4L284,630.3L281.5,628.9z M297.2,651.2h3.7l-0.9-1.6L297.2,651.2z
		 M138.2,181.7l91.4,52.8l1.8-3.2l-91.4-52.8L138.2,181.7z M361.9,651.2h3.7V649h-3.7V651.2z M317.7,566.3l53.4,30.8l1.8-3.2
		l-53.4-30.8L317.7,566.3z M361.9,486.4v90.8h3.7v-90.8H361.9z M281.6,585l-1.8,3.2l4.3,2.5l87.1,50.3l1.8-3.2l-89-51.4L281.6,585z
		 M304.9,573.5l66.2,38.2l1.8-3.2l-66.2-38.2L304.9,573.5z M292.4,580.9l78.8,45.5l1.8-3.2l-78.8-45.5L292.4,580.9z M258.4,651.2
		h3.7v-76.4h-3.7V651.2z M220.4,79.9v90.8h3.7V79.9H220.4z M206.3,246L140,207.7l-1.8,3.2l66.3,38.3L206.3,246z M163.4,167
		l66.2,38.2l1.8-3.2l-66.2-38.2L163.4,167z M150.9,174.4l78.8,45.5l1.8-3.2l-78.8-45.5L150.9,174.4z M281.6,422.4l-1.8,3.2l4.3,2.5
		l87.1,50.3l1.8-3.2l-89-51.4L281.6,422.4z M138.2,19.1l91.4,52.8l1.8-3.2l-91.4-52.8L138.2,19.1z M233,651.2h3.7v-91H233V651.2z
		 M150.9,11.7l78.8,45.5l1.8-3.2L152.7,8.5L150.9,11.7z M245.7,651.2h3.7v-83.5h-3.7V651.2z M182.5,0.8L229.6,28l1.8-3.2l-41.6-24
		H182.5z M163.4,4.4l66.2,38.2l1.8-3.2L165.3,1.2L163.4,4.4z M284,644.2l-12.1,7h7.4l4.8-2.7l5.1-2.9l-1.8-3.2L284,644.2z
		 M317.7,78.4l53.4,30.8l1.8-3.2l-53.4-30.8L317.7,78.4z M466.9,626.8l-42.3,24.4h7.4l36.8-21.2L466.9,626.8z M466.9,612.2
		l-66.4,38.3l0.4,0.7h5.7l62.1-35.9L466.9,612.2z M387.2,651.2h3.7V649h-3.7V651.2z M292.4,418.3l78.8,45.5l1.8-3.2l-78.8-45.5
		L292.4,418.3z M459.2,647.6l6.3,3.6h7.4l-11.8-6.8L459.2,647.6z M421.2,550.8l53.5,30.9l1.8-3.2L423,547.6L421.2,550.8z
		 M421.2,521.5l79,45.6l1.8-3.2l-79-45.6L421.2,521.5z M490.7,651.2h3.7v-76.4h-3.7V651.2z M421.2,536.2l66.3,38.3l1.8-3.2L423,533
		L421.2,536.2z M478,644h3.7v-61.8H478V644z M374.5,651.2h3.7v-9.7h-3.7V651.2z M281.6,259.8l-1.8,3.2l4.3,2.5l87.1,50.3l1.8-3.2
		l-89-51.4L281.6,259.8z M361.9,323.8v90.8h3.7v-90.8H361.9z M317.7,403.7l53.4,30.8l1.8-3.2l-53.4-30.8L317.7,403.7z M304.9,410.9
		l66.2,38.2l1.8-3.2l-66.2-38.2L304.9,410.9z M292.4,255.7l78.8,45.5l1.8-3.2l-78.8-45.5L292.4,255.7z M281.6,97.2l-1.8,3.2l4.3,2.5
		l87.1,50.3l1.8-3.2l-89-51.4L281.6,97.2z M292.4,93.1l78.8,45.5l1.8-3.2l-78.8-45.5L292.4,93.1z M304.9,85.7l66.2,38.2l1.8-3.2
		l-66.2-38.2L304.9,85.7z M304.9,248.3l66.2,38.2l1.8-3.2l-66.2-38.2L304.9,248.3z M317.7,241.1l53.4,30.8l1.8-3.2l-53.4-30.8
		L317.7,241.1z M361.9,161.2V252h3.7v-90.8H361.9z M281.5,599.6l-1.8,3.2l4.3,2.5l74.7,43.1l1.8-3.2L284,601.1L281.5,599.6z
		 M21.9,410.9l66.2,38.2l1.8-3.2l-66.2-38.2L21.9,410.9z M34.7,403.7l53.4,30.8l1.8-3.2l-53.4-30.8L34.7,403.7z M78.9,486.4v90.8
		h3.7v-90.8H78.9z M9.4,418.3l78.8,45.5l1.8-3.2l-78.8-45.5L9.4,418.3z M1,428.1l87.1,50.3l1.8-3.2L1,423.8V428.1z M78.9,323.8v90.8
		h3.7v-90.8H78.9z M1,102.8l87.1,50.3L90,150L1,98.6V102.8z M1,265.5l87.1,50.3l1.8-3.2L1,261.2V265.5z M78.9,161.2V252h3.7v-90.8
		H78.9z M21.9,248.3l66.2,38.2l1.8-3.2l-66.2-38.2L21.9,248.3z M9.4,255.7l78.8,45.5l1.8-3.2l-78.8-45.5L9.4,255.7z M34.7,241.1
		l53.4,30.8l1.8-3.2l-53.4-30.8L34.7,241.1z M1,620l54.2,31.3h7.4L1,615.7V620z M1,634.6l28.8,16.6h7.4L1,630.3V634.6z M14.2,651.2
		h3.7l-0.9-1.6L14.2,651.2z M1,644.2v4.3l5.1-2.9l-1.8-3.2L1,644.2z M220.4,242.5v90.8h3.7v-90.8H220.4z M42.4,545.5L1,569.4v4.3
		l43.3-25L42.4,545.5z M9.4,580.9l78.8,45.5l1.8-3.2l-78.8-45.5L9.4,580.9z M1,605.3l74.7,43.1l1.8-3.2L1,601.1V605.3z M21.9,573.5
		l66.2,38.2l1.8-3.2l-66.2-38.2L21.9,573.5z M1,590.7L88.1,641l1.8-3.2L1,586.4V590.7z M78.9,651.2h3.7V649h-3.7V651.2z M34.7,566.3
		l53.4,30.8l1.8-3.2l-53.4-30.8L34.7,566.3z M150.9,499.6l78.8,45.5l1.8-3.2l-78.8-45.5L150.9,499.6z M163.4,492.2l66.2,38.2
		l1.8-3.2L165.3,489L163.4,492.2z M138.2,506.9l91.4,52.8l1.8-3.2l-91.4-52.8L138.2,506.9z M178.1,481.8l-1.8,3.2l6.3,3.6l47.1,27.2
		l1.8-3.2l-41.6-24L178.1,481.8z M138.2,521.5l79,45.6l1.8-3.2l-79-45.6L138.2,521.5z M220.4,651.2h3.7v-83.5h-3.7V651.2z
		 M178.1,319.2l-1.8,3.2l6.3,3.6l47.1,27.2l1.8-3.2l-41.6-24L178.1,319.2z M163.4,329.6l66.2,38.2l1.8-3.2l-66.2-38.2L163.4,329.6z
		 M220.4,405.1v90.8h3.7v-90.8H220.4z M138.2,344.3l91.4,52.8l1.8-3.2l-91.4-52.8L138.2,344.3z M150.9,337l78.8,45.5l1.8-3.2
		l-78.8-45.5L150.9,337z M183.9,626.8l-42.3,24.4h7.4l36.8-21.2L183.9,626.8z M91.5,651.2h3.7v-9.7h-3.7V651.2z M183.9,612.2
		l-66.4,38.3l0.4,0.7h5.7l62.1-35.9L183.9,612.2z M104.2,651.2h3.7V649h-3.7V651.2z M21.9,85.7l66.2,38.2l1.8-3.2L23.8,82.5
		L21.9,85.7z M34.7,78.4l53.4,30.8l1.8-3.2L36.6,75.2L34.7,78.4z M138.2,550.8l53.5,30.9l1.8-3.2L140,547.6L138.2,550.8z M195,644
		h3.7v-61.8H195V644z M138.2,536.2l66.3,38.3l1.8-3.2L140,533L138.2,536.2z M176.2,647.6l6.3,3.6h7.4l-11.8-6.8L176.2,647.6z
		 M207.7,651.2h3.7v-76.4h-3.7V651.2z M9.4,93.1l78.8,45.5l1.8-3.2L11.2,89.9L9.4,93.1z"/>
</g>
</svg>
