<?xml version="1.0" encoding="utf-8"?>
<!-- Generator: Adobe Illustrator 22.0.1, SVG Export Plug-In . SVG Version: 6.00 Build 0)  -->
<svg version="1.1" id="Layer_1" xmlns="http://www.w3.org/2000/svg" xmlns:xlink="http://www.w3.org/1999/xlink" x="0px" y="0px"
	 viewBox="0 0 48 48" style="enable-background:new 0 0 48 48;" xml:space="preserve">
<style type="text/css">
	.st0{fill:#FFFFFF;}
</style>
<path class="st0" d="M40.9,7c-4.5-4.5-10.5-7-16.8-7C11,0,0.3,10.7,0.3,23.8c0,4.2,1.1,8.3,3.2,11.9L0.1,48l12.6-3.3
	c3.5,1.9,7.4,2.9,11.4,2.9h0c13.1,0,23.8-10.7,23.8-23.8C47.9,17.4,45.4,11.5,40.9,7z M24.1,43.6L24.1,43.6c-3.6,0-7-1-10.1-2.8
	l-0.7-0.4l-7.5,2l2-7.3l-0.5-0.7c-2-3.1-3-6.8-3-10.5C4.3,12.9,13.2,4,24.1,4c5.3,0,10.2,2.1,14,5.8s5.8,8.7,5.8,14
	C43.9,34.7,35,43.6,24.1,43.6z M34.9,28.8c-0.6-0.3-3.5-1.7-4.1-1.9c-0.5-0.2-0.9-0.3-1.3,0.3c-0.4,0.6-1.5,1.9-1.9,2.3
	c-0.3,0.4-0.7,0.4-1.3,0.1c-0.6-0.3-2.5-0.9-4.8-2.9c-1.8-1.6-3-3.5-3.3-4.1c-0.3-0.6,0-0.9,0.3-1.2c0.6-0.8,1.3-1.6,1.5-2
	c0.2-0.4,0.1-0.7,0-1c-0.1-0.3-1.3-3.2-1.8-4.4c-0.5-1.2-1-1-1.3-1c-0.3,0-0.7,0-1.1,0c-0.4,0-1,0.1-1.6,0.7c-0.5,0.6-2.1,2-2.1,5
	s2.1,5.8,2.4,6.1c0.3,0.4,4.2,6.4,10.2,9c1.4,0.6,2.5,1,3.4,1.3c1.4,0.5,2.7,0.4,3.7,0.2c1.1-0.2,3.5-1.4,4-2.8
	c0.5-1.4,0.5-2.6,0.3-2.8C35.9,29.2,35.5,29.1,34.9,28.8z"/>
</svg>
